<svg xmlns="http://www.w3.org/2000/svg" viewBox="0 0 64 64" role="img" aria-label="NexusNova Nova Star">
  <defs>
    <linearGradient id="bg" x1="8" y1="6" x2="57" y2="60" gradientUnits="userSpaceOnUse">
      <stop stop-color="#070B18"/>
      <stop offset="1" stop-color="#101934"/>
    </linearGradient>
    <linearGradient id="nova" x1="19" y1="17" x2="46" y2="48" gradientUnits="userSpaceOnUse">
      <stop stop-color="#A98CFF"/>
      <stop offset="0.5" stop-color="#6F8CFF"/>
      <stop offset="1" stop-color="#37E7E1"/>
    </linearGradient>
    <radialGradient id="core" cx="0" cy="0" r="1" gradientTransform="translate(32 32) rotate(90) scale(14)">
      <stop stop-color="#FFFFFF"/>
      <stop offset="0.35" stop-color="#C9F7FF"/>
      <stop offset="1" stop-color="#75E9FF" stop-opacity="0"/>
    </radialGradient>
  </defs>
  <rect x="2" y="2" width="60" height="60" rx="17" fill="url(#bg)"/>
  <rect x="2.75" y="2.75" width="58.5" height="58.5" rx="16.25" fill="none" stroke="#8A9CFF" stroke-opacity="0.28" stroke-width="1.5"/>
  <ellipse cx="32" cy="32" rx="23" ry="9" fill="none" stroke="url(#nova)" stroke-width="2.2" stroke-linecap="round" transform="rotate(-24 32 32)"/>
  <ellipse cx="32" cy="32" rx="22" ry="8" fill="none" stroke="#58E6F0" stroke-opacity="0.32" stroke-width="1.2" transform="rotate(36 32 32)"/>
  <circle cx="32" cy="32" r="14" fill="url(#core)" opacity="0.72"/>
  <path d="M32 13.5C34.4 24.9 39.1 29.6 50.5 32C39.1 34.4 34.4 39.1 32 50.5C29.6 39.1 24.9 34.4 13.5 32C24.9 29.6 29.6 24.9 32 13.5Z" fill="url(#nova)"/>
  <path d="M32 22.5C33.2 28.1 35.9 30.8 41.5 32C35.9 33.2 33.2 35.9 32 41.5C30.8 35.9 28.1 33.2 22.5 32C28.1 30.8 30.8 28.1 32 22.5Z" fill="#FFFFFF"/>
  <circle cx="51.5" cy="24.5" r="2.4" fill="#8FF7ED"/>
</svg>
