<svg xmlns="http://www.w3.org/2000/svg" viewBox="0 0 512 512"><defs><linearGradient id="b" x1="0" y1="0" x2="1" y2="1"><stop stop-color="#56d8ff"/><stop offset=".5" stop-color="#0878ff"/><stop offset="1" stop-color="#04245b"/></linearGradient><linearGradient id="p" x1="0" y1="0" x2="0" y2="1"><stop stop-color="#f8fdff"/><stop offset="1" stop-color="#79d8ff"/></linearGradient><radialGradient id="bg"><stop stop-color="#0c3c83"/><stop offset="1" stop-color="#020a18"/></radialGradient><filter id="s"><feDropShadow dx="0" dy="14" stdDeviation="14" flood-color="#000" flood-opacity=".55"/><feDropShadow dx="0" dy="0" stdDeviation="8" flood-color="#28c9ff" flood-opacity=".55"/></filter></defs><rect x="28" y="28" width="456" height="456" rx="94" fill="url(#bg)" stroke="url(#b)" stroke-width="18"/><rect x="45" y="45" width="422" height="422" rx="78" fill="none" stroke="#7de7ff" stroke-opacity=".38" stroke-width="4"/><g filter="url(#s)"><rect x="108" y="102" width="270" height="220" rx="30" fill="url(#p)" transform="rotate(-7 243 212)"/><rect x="126" y="122" width="232" height="182" rx="22" fill="url(#b)" transform="rotate(-7 243 212)"/><circle cx="178" cy="172" r="24" fill="#fff"/><path d="M137 278l67-73 43 40 33-34 63 69z" fill="#dff7ff" opacity=".94"/><path d="M190 244l49-53 28 30 17-17 49 60z" fill="#144fe0" opacity=".9"/><path d="M331 229l31 20 32-17-9 36 28 25-38 2-17 32-14-35-37-8 29-23z" fill="#e9fbff" stroke="#43d9ff" stroke-width="8"/><path d="M372 292l76 86" stroke="#e9fbff" stroke-width="22" stroke-linecap="round"/><path d="M373 291l76 86" stroke="#1b6ed7" stroke-width="12" stroke-linecap="round"/></g><g fill="#48dcff"><circle cx="409" cy="131" r="7"/><circle cx="440" cy="176" r="4"/><circle cx="391" cy="102" r="4"/><path d="M420 107v28M406 121h28" stroke="#fff" stroke-width="5" stroke-linecap="round"/></g><g stroke="#81eaff" stroke-width="7" stroke-linecap="round"><path d="M151 369h198"/><path d="M151 399h198"/><path d="M151 429h198"/></g><g fill="#eafcff" stroke="#148bff" stroke-width="5"><circle cx="220" cy="369" r="13"/><circle cx="277" cy="399" r="13"/><circle cx="314" cy="429" r="13"/></g></svg>